<svg xmlns="http://www.w3.org/2000/svg" xml:space="preserve" width="500px" height="500px" version="1.1"
style="fill-rule:evenodd" viewBox="0 0 2735 2735">
 <!-- @treedbox, treedbox.com -->
 <defs>
  <style type="text/css">
   <![CDATA[
    .fil2 {
      fill:none
    }
    .fil1 {
      fill:#000
    }
    .fil0 {
      fill:#FFDD00
    }
    .girar1{
      animation: girar1 2s infinite linear;
      transform-origin: 50% 890px;
    }
    .girar2{
      animation: girar2 2s infinite linear;
      transform-origin: 50% 1845px;
    }
    @keyframes girar1 {
      0%{
        transform: rotate(0deg);
      }
      50%{
        transform: rotate(360deg);
      }
      100%{
        transform: rotate(360deg);
      }
    }
    @keyframes girar2 {
      53%{
        transform: rotate(0deg);
      }
      100%{
        transform: rotate(-360deg);
      }
    }
]]>
  </style>
 </defs>
 <g>
  <rect class="fil0" width="2735" height="2735"/>
  <g>
   <g>
    <path class="fil1" d="M1367 1486c329,0 596,-267 596,-596l-236 0c0,199 -161,359 -360,359 -198,0 -359,-160 -359,-359l-236 0c0,329 267,596 595,596z"/>
    <path class="fil2" d="M1367 295c329,0 596,267 596,595l-236 0c0,-198 -161,-359 -360,-359 -198,0 -359,161 -359,359l-236 0c0,-328 267,-595 595,-595z"/>
   </g>
   <path class="fil1" d="M1669 917c-8,160 -140,287 -302,287 -166,0 -301,-135 -301,-302 0,-166 135,-301 301,-301l0 0 134 0 0 -271 168 0c0,191 0,382 0,572l0 15 0 0zm-168 -15c0,0 0,0 0,0 0,74 -60,134 -134,134 -73,0 -133,-60 -133,-134 0,-73 60,-133 133,-133l134 0 0 133 0 0z"/>
   <g class="girar2">
    <path class="fil1" d="M1367 1249c329,0 596,267 596,596l-236 0c0,-199 -161,-359 -360,-359 -198,0 -359,160 -359,359l-236 0c0,-329 267,-596 595,-596z"/>
    <path class="fil2" d="M1367 2440c329,0 596,-267 596,-595l-236 0c0,198 -161,359 -360,359 -198,0 -359,-161 -359,-359l-236 0c0,328 267,595 595,595z"/>
   </g>
   <g class="girar1">
    <path class="fil1" d="M1367 1486c329,0 596,-267 596,-596l-236 0c0,199 -161,359 -360,359 -198,0 -359,-160 -359,-359l-236 0c0,329 267,596 595,596z"/>
    <path class="fil2" d="M1367 295c329,0 596,267 596,595l-236 0c0,-198 -161,-359 -360,-359 -198,0 -359,161 -359,359l-236 0c0,-328 267,-595 595,-595z"/>
   </g>
   <g>
    <path class="fil1" d="M1367 1249c329,0 596,267 596,596l-236 0c0,-199 -161,-359 -360,-359 -198,0 -359,160 -359,359l-236 0c0,-329 267,-596 595,-596z"/>
    <path class="fil2" d="M1367 2440c329,0 596,-267 596,-595l-236 0c0,198 -161,359 -360,359 -198,0 -359,-161 -359,-359l-236 0c0,328 267,595 595,595z"/>
   </g>
  </g>
 </g>
</svg>
